# xmcd CD database file
#
# Track frame offsets:
#	150
#	20811
#	23436
#	27099
#	30015
#	43109
#	48323
#	54275
#	61558
#	73056
#	83035
#	90331
#	97824
#	103750
#	110871
#	131285
#	139104
#	149334
#	152300
#	159901
#	166351
#	178928
#	181899
#	187679
#	196883
#	207613
#	211750
#	228731
#
# Disc length: 3191 seconds
#
# Revision: 0
# Processed by: cddbd v1.5.2PL0 Copyright (c) Steve Scherf et al.
# Submitted via: CDex 1.51
#
DISCID=640c751c
DTITLE=Michael Publig - Jazz on Classics
DYEAR=2005
DGENRE=Jazz
TTITLE0=Jazz on Bach and Schumann - Fast Forward
TTITLE1=Bach - Präludium c-Dur
TTITLE2=Bach - Be-Bach-Bop
TTITLE3=Bach - Fuge c-Moll
TTITLE4=Bach - Bachiana Chorando
TTITLE5=Bach - Correndte and Präludium c-Moll
TTITLE6=Bach - Oscar's Bach Blues
TTITLE7=Bach - Bourrée E-Moll
TTITLE8=Bach - Bach in Paris
TTITLE9=Bach - Baja Flamenco
TTITLE10=Bach - Badinerie
TTITLE11=Bach - Keith's Airy Introduction
TTITLE12=Bach - Air
TTITLE13=Bach - Bossa Baroque
TTITLE14=Bach - Cembalokonzert e-Moll - Jazz Concerto
TTITLE15=Schumann - Von fremden Ländern und Menschen
TTITLE16=Schumann - Of Friends in my Home
TTITLE17=Schumann - Fröhlicher Landmann
TTITLE18=Schumann - Swinging through the Countryside
TTITLE19=Schumann - Klavierquintett
TTITLE20=Schumann - Blue Life
TTITLE21=Schumann - Wilder Reiter
TTITLE22=Schumann - Horse Back Riding, Yesterday, in Arizona
TTITLE23=Schumann - Fürchtenmachen
TTITLE24=Schumann - No tiengas miedo!
TTITLE25=Schumann - Klavierkonzert e-Moll
TTITLE26=Schumann - Concierto Latino
TTITLE27=Encore: Baja Flamenco
EXTD=YEAR: 2005
EXTT0=
EXTT1=
EXTT2=
EXTT3=
EXTT4=
EXTT5=
EXTT6=
EXTT7=
EXTT8=
EXTT9=
EXTT10=
EXTT11=
EXTT12=
EXTT13=
EXTT14=
EXTT15=
EXTT16=
EXTT17=
EXTT18=
EXTT19=
EXTT20=
EXTT21=
EXTT22=
EXTT23=
EXTT24=
EXTT25=
EXTT26=
EXTT27=
PLAYORDER=
